<svg width="18" height="18" viewBox="0 0 18 18" fill="none" xmlns="http://www.w3.org/2000/svg">
<path d="M6.90385 15.3218C7.01023 15.7308 7.2492 16.0929 7.5833 16.3513C7.91739 16.6098 8.32773 16.75 8.75 16.75C9.17227 16.75 9.58261 16.6098 9.9167 16.3513C10.2508 16.0929 10.4898 15.7308 10.5962 15.3218M8.75 0.75C10.1503 0.75 11.4933 1.30673 12.4835 2.29773C13.4737 3.28872 14.03 4.6328 14.03 6.03427C14.03 11.9098 16.1715 13.0677 16.75 13.0677H0.75C1.34077 13.0677 3.47 11.8975 3.47 6.03427C3.47 4.6328 4.02628 3.28872 5.01648 2.29773C6.00667 1.30673 7.34966 0.75 8.75 0.75Z" stroke="#31374A" stroke-width="1.5" stroke-linecap="round" stroke-linejoin="round"/>
</svg>
