<svg width="14" height="18" viewBox="0 0 14 18" fill="none" xmlns="http://www.w3.org/2000/svg">
<path d="M3.64379 3.99776C3.28467 3.99776 2.99356 4.28864 2.99356 4.64746C2.99356 5.00628 3.28467 5.29716 3.64379 5.29716H10.3462C10.7053 5.29716 10.9964 5.00628 10.9964 4.64746C10.9964 4.28864 10.7053 3.99776 10.3462 3.99776H3.64379Z" fill="#56627D"/>
<path d="M2.99356 7.64607C2.99356 7.28725 3.28467 6.99637 3.64379 6.99637H10.3462C10.7053 6.99637 10.9964 7.28725 10.9964 7.64607C10.9964 8.00488 10.7053 8.29577 10.3462 8.29577H3.64379C3.28467 8.29577 2.99356 8.00488 2.99356 7.64607Z" fill="#56627D"/>
<path d="M3.64379 9.99498C3.28467 9.99498 2.99356 10.2859 2.99356 10.6447C2.99356 11.0035 3.28467 11.2944 3.64379 11.2944H6.84495C7.20407 11.2944 7.49519 11.0035 7.49519 10.6447C7.49519 10.2859 7.20407 9.99498 6.84495 9.99498H3.64379Z" fill="#56627D"/>
<path fill-rule="evenodd" clip-rule="evenodd" d="M0 16.3925C0 17.6525 1.39034 18.4176 2.45607 17.7442L4.40944 16.5099L6.01768 17.6898C6.58141 18.1034 7.34861 18.1034 7.91232 17.6898L9.52715 16.505L11.5467 17.757C12.6129 18.418 13.9911 17.6518 13.9911 16.398L14 2.59879C14 1.16352 12.8355 0 11.3991 0H2.60986C1.1734 0 0.00892674 1.16352 0.00892674 2.59879L0 16.3925ZM2.60986 1.2994C1.89163 1.2994 1.30939 1.88116 1.30939 2.59879L1.30047 16.3925C1.30047 16.6288 1.56116 16.7722 1.76098 16.646L4.06039 15.193C4.3039 15.0391 4.61688 15.05 4.84912 15.2204L6.78738 16.6424C6.89308 16.72 7.03693 16.72 7.14262 16.6424L9.08443 15.2178C9.31489 15.0487 9.6251 15.0366 9.86806 15.1872L12.2323 16.6528C12.4322 16.7768 12.6906 16.6331 12.6906 16.398L12.6995 2.59879C12.6995 1.88116 12.1173 1.2994 11.3991 1.2994H2.60986Z" fill="#56627D"/>
</svg>
