<svg width="36" height="36" viewBox="0 0 36 36" fill="none" xmlns="http://www.w3.org/2000/svg">
<circle opacity="0.1" cx="18.5" cy="18.5" r="15.5" fill="#ED2000"/>
<path d="M23.7477 14.4706C24.0841 14.1342 24.0841 13.5887 23.7477 13.2523C23.4113 12.9159 22.8658 12.9159 22.5294 13.2523L18.4465 17.2282L14.4706 13.2523C14.1342 12.9159 13.5887 12.9159 13.2523 13.2523C12.9159 13.5887 12.9159 14.1342 13.2523 14.4706L17.2283 18.4465L13.2523 22.5294C12.9159 22.8658 12.9159 23.4113 13.2523 23.7477C13.5888 24.0841 14.1342 24.0841 14.4706 23.7477L18.4465 19.6648L22.4224 23.7477C22.7588 24.0841 23.3042 24.0841 23.6407 23.7477C23.9771 23.4113 23.9771 22.8658 23.6407 22.5294L19.6648 18.4465L23.7477 14.4706Z" fill="#ED2000"/>
</svg>
