<svg width="11" height="11" viewBox="0 0 11 11" fill="none" xmlns="http://www.w3.org/2000/svg">
<path d="M10.7477 1.47058C11.0841 1.13417 11.0841 0.588726 10.7477 0.252311C10.4113 -0.0841045 9.86584 -0.0841032 9.52942 0.252313L5.44652 4.22824L1.47058 0.252314C1.13416 -0.084102 0.588726 -0.0841013 0.252312 0.252314C-0.0841035 0.58873 -0.0841041 1.13417 0.252311 1.47058L4.22825 5.44651L0.252349 9.52942C-0.0840656 9.86584 -0.0840656 10.4113 0.25235 10.7477C0.588764 11.0841 1.1342 11.0841 1.47062 10.7477L5.44652 6.66478L9.42239 10.7477C9.75881 11.0841 10.3042 11.0841 10.6407 10.7477C10.9771 10.4113 10.9771 9.86581 10.6407 9.5294L6.66479 5.44651L10.7477 1.47058Z" fill="#ED2000"/>
</svg>
