<svg width="19" height="18" viewBox="0 0 19 18" fill="none" xmlns="http://www.w3.org/2000/svg">
<path fill-rule="evenodd" clip-rule="evenodd" d="M15.2249 5.46151L18.2249 8.46151C18.4964 8.69631 18.5262 9.10678 18.2914 9.37834C18.0567 9.64989 17.6462 9.67969 17.3746 9.4449L16.2249 8.29516V16.1615C16.2249 16.8795 15.6429 17.4615 14.9249 17.4615H11.7243C11.0062 17.4615 10.4242 16.8794 10.4243 16.1614L10.4249 10.7615H8.02488V16.1615C8.02488 16.8795 7.44286 17.4615 6.72489 17.4615L3.52488 17.4615C2.80691 17.4615 2.22488 16.8795 2.22488 16.1615V8.29516L1.07514 9.4449C0.803588 9.67969 0.393111 9.64989 0.158317 9.37834C-0.0764772 9.10678 -0.0466765 8.69631 0.224879 8.46151L3.22488 5.46151L8.30565 0.380761C8.81333 -0.126921 9.63644 -0.12692 10.1441 0.380762L15.2249 5.46151ZM14.9249 16.1615H11.7249V10.7615C11.7249 10.0435 11.1429 9.46152 10.4249 9.46152H8.02488C7.30691 9.46152 6.72488 10.0435 6.72488 10.7615V16.1615H3.52488V7L9.22488 1.3L14.9249 7V16.1615Z" fill="#56627D"/>
</svg>
