<svg width="20" height="20" viewBox="0 0 20 20" fill="none" xmlns="http://www.w3.org/2000/svg">
<path fill-rule="evenodd" clip-rule="evenodd" d="M15.3734 0.347589C15.8369 -0.115863 16.5883 -0.115863 17.0518 0.347589L19.2465 2.5423C19.7099 3.00575 19.7099 3.75715 19.2465 4.2206L17.0518 6.41531C16.5883 6.87877 15.8369 6.87877 15.3735 6.41531L13.1787 4.2206C12.7153 3.75715 12.7153 3.00575 13.1787 2.5423L15.3734 0.347589ZM18.2509 3.37539L16.2183 1.34277L14.1809 3.38018L16.2135 5.4128L18.2509 3.37539Z" fill="#56627D"/>
<path fill-rule="evenodd" clip-rule="evenodd" d="M1.3 0.381439C0.58203 0.381439 0 0.963469 0 1.68144V5.08144C0 5.79941 0.58203 6.38144 1.3 6.38144H4.7C5.41797 6.38144 6 5.79941 6 5.08144V1.68144C6 0.963469 5.41797 0.381439 4.7 0.381439H1.3ZM1.30078 1.68359H4.7017V5.0787H1.30078V1.68359Z" fill="#56627D"/>
<path d="M16.2125 8.0586C16.5715 8.0586 16.8625 8.34962 16.8625 8.7086V11.6722C16.8625 12.0311 16.5715 12.3222 16.2125 12.3222C15.8535 12.3222 15.5625 12.0311 15.5625 11.6722V8.7086C15.5625 8.34962 15.8535 8.0586 16.2125 8.0586Z" fill="#56627D"/>
<path fill-rule="evenodd" clip-rule="evenodd" d="M16.2126 13.6266C14.5557 13.6266 13.2126 14.9698 13.2126 16.6266C13.2126 18.2835 14.5557 19.6266 16.2126 19.6266C17.8694 19.6266 19.2126 18.2835 19.2126 16.6266C19.2126 14.9698 17.8694 13.6266 16.2126 13.6266ZM16.2128 18.3206C17.1503 18.3206 17.9103 17.5606 17.9103 16.6231C17.9103 15.6856 17.1503 14.9255 16.2128 14.9255C15.2753 14.9255 14.5153 15.6856 14.5153 16.6231C14.5153 17.5606 15.2753 18.3206 16.2128 18.3206Z" fill="#56627D"/>
<path d="M7.95106 2.73141C7.59207 2.73141 7.30106 3.02243 7.30106 3.38141C7.30106 3.7404 7.59207 4.03141 7.95106 4.03141H10.8815C11.2405 4.03141 11.5315 3.7404 11.5315 3.38141C11.5315 3.02243 11.2405 2.73141 10.8815 2.73141H7.95106Z" fill="#56627D"/>
<path d="M7.82099 14.4965L9.33398 15.9585L6.00561 15.9594C4.70775 15.9594 3.65562 14.9072 3.65562 13.6094V8.33203C3.65562 7.97305 3.3646 7.68203 3.00562 7.68203C2.64663 7.68203 2.35562 7.97305 2.35562 8.33203V13.6094C2.35562 15.6252 3.98978 17.2594 6.00561 17.2594H9.33304L7.8288 18.7127C7.57496 18.9665 7.57496 19.3781 7.8288 19.6319C8.08264 19.8857 8.4942 19.8857 8.74804 19.6319L11.7162 17.0681C11.97 16.8142 11.97 16.4027 11.7162 16.1489L8.74023 13.5772C8.48639 13.3234 8.07483 13.3234 7.82099 13.5772C7.56715 13.8311 7.56715 14.2426 7.82099 14.4965Z" fill="#56627D"/>
</svg>
