<svg width="49" height="49" viewBox="0 0 49 49" fill="none" xmlns="http://www.w3.org/2000/svg">
<rect y="19.511" width="28.817" height="28.817" rx="6" transform="rotate(-7.83553 0 19.511)" fill="#ACE4A2"/>
<circle cx="31.0428" cy="17.1443" r="16.1443" fill="#DBF9D7" stroke="white" stroke-width="2"/>
<path d="M30.5904 7.84206C30.7691 7.45462 31.3197 7.45462 31.4984 7.84206L33.8294 12.8956C33.9023 13.0535 34.0519 13.1622 34.2246 13.1827L39.7511 13.838C40.1748 13.8882 40.345 14.4119 40.0317 14.7016L35.9458 18.4801C35.8181 18.5982 35.761 18.7741 35.7949 18.9446L36.8795 24.4032C36.9626 24.8216 36.5171 25.1453 36.1448 24.9369L31.2886 22.2186C31.1369 22.1337 30.9519 22.1337 30.8002 22.2186L25.944 24.9369C25.5717 25.1453 25.1262 24.8216 25.2094 24.4032L26.294 18.9446C26.3279 18.7741 26.2707 18.5982 26.143 18.4801L22.0571 14.7016C21.7439 14.4119 21.914 13.8882 22.3377 13.838L27.8643 13.1827C28.0369 13.1622 28.1866 13.0535 28.2594 12.8956L30.5904 7.84206Z" fill="#53D633"/>
</svg>
